<?xml version="1.0" encoding="iso-8859-1"?>
<!-- Generator: Adobe Illustrator 19.1.0, SVG Export Plug-In . SVG Version: 6.00 Build 0)  -->
<svg version="1.1" id="Capa_1" xmlns="http://www.w3.org/2000/svg" xmlns:xlink="http://www.w3.org/1999/xlink" x="0px" y="0px"
	 viewBox="0 0 477.857 477.857" style="enable-background:new 0 0 477.857 477.857;" xml:space="preserve">
<g>
	<g>
		<g>
			<path style="fill:#231F20;" d="M430.787,410.495H48.103C21.379,410.495,0,389.116,0,362.392V115.465
				c0-26.724,21.379-48.103,48.103-48.103h381.615c26.724,0,48.103,21.379,48.103,48.103v246.927
				C478.889,389.116,456.442,410.495,430.787,410.495z M48.103,99.431c-8.552,0-16.034,7.483-16.034,16.034v246.927
				c0,8.552,7.483,16.034,16.034,16.034h381.615c8.552,0,16.034-7.483,16.034-16.034V115.465c0-8.552-7.483-16.034-16.034-16.034
				H48.103z"/>
		</g>
		<path style="fill:#231F20;" d="M239.445,298.255c-4.276,0-7.483-1.069-10.689-4.276L14.965,104.775
			c-6.414-5.345-7.483-16.034-1.069-22.448c5.345-6.414,16.034-7.483,22.448-1.069l203.1,179.584l203.1-179.584
			c6.414-5.345,17.103-5.345,22.448,1.069c5.345,6.414,5.345,17.103-1.069,22.448l-213.79,189.204
			C246.927,296.117,242.652,298.255,239.445,298.255z"/>
		<g>
			<path style="fill:#231F20;" d="M19.241,395.53c-4.276,0-8.552-2.138-11.758-5.345c-6.414-6.414-5.345-17.103,1.069-22.448
				l151.791-143.239c6.414-6.414,17.103-5.345,22.448,1.069c6.414,6.414,5.345,17.103-1.069,22.448L30.999,391.254
				C27.793,393.392,23.517,395.53,19.241,395.53z"/>
			<path style="fill:#231F20;" d="M458.579,395.53c-4.276,0-7.483-1.069-10.69-4.276L296.099,248.015
				c-6.414-6.414-6.414-16.034-1.069-22.448c6.414-6.414,16.034-6.414,22.448-1.069l151.791,143.239
				c6.414,6.414,6.414,16.034,1.069,22.448C467.131,393.392,462.855,395.53,458.579,395.53z"/>
		</g>
	</g>
</g>
<g>
</g>
<g>
</g>
<g>
</g>
<g>
</g>
<g>
</g>
<g>
</g>
<g>
</g>
<g>
</g>
<g>
</g>
<g>
</g>
<g>
</g>
<g>
</g>
<g>
</g>
<g>
</g>
<g>
</g>
</svg>
